<?xml version="1.0" encoding="UTF-8"?>
<svg id="Layer_1" data-name="Layer 1" xmlns="http://www.w3.org/2000/svg" viewBox="0 0 612 553">
  <defs>
    <style>
      .cls-1 {
        fill: none;
      }

      .cls-1, .cls-2, .cls-3, .cls-4, .cls-5, .cls-6, .cls-7, .cls-8 {
        stroke: #231f20;
        stroke-miterlimit: 10;
        stroke-width: 4.04px;
      }

      .cls-2 {
        fill: #a7a9ac;
      }

      .cls-3 {
        fill: #f38dba;
      }

      .cls-4 {
        fill: #fff;
      }

      .cls-5 {
        fill: #ffc820;
      }

      .cls-6 {
        fill: #d1d3d4;
      }

      .cls-7 {
        fill: #231f20;
      }

      .cls-8 {
        fill: #c49a6c;
      }
    </style>
  </defs>
  <path class="cls-7" d="m147.97,119.66v330.84c0,23.92,19.39,43.3,43.3,43.3h207.81c23.92,0,43.3-19.39,43.3-43.3v-249.26c0-10.38-111.57-122.23-121.69-122.43l-128.6-2.45c-24.23-.46-44.13,19.06-44.13,43.3Z"/>
  <g>
    <path class="cls-7" d="m284.3,513.84l53.35-41.66c1.03-.8,1.2-2.28.4-3.31l-147.89-187.68c-.8-1.02-2.27-1.19-3.29-.4l-52.19,40.75c-1.67,1.3-1.96,3.71-.65,5.37l146.98,186.52c.8,1.02,2.27,1.19,3.29.4Z"/>
    <rect class="cls-7" x="259.8" y="453.98" width="72.37" height="39.83" transform="translate(-230.57 287.01) rotate(-38.47)"/>
    <path class="cls-7" d="m280.05,512.01s25.8,38.88,57.41,18.71c36.38-23.22-.75-63.73-.75-63.73l-56.66,45.02Z"/>
    <path class="cls-7" d="m132.74,321.94c.32,1.51,1.44,2.7,2.91,3.13,5.75,1.7,20.78,4.49,34.75-7,13.84-11.39,17.01-28.02,17.74-34.76.19-1.78-.76-3.47-2.38-4.23l-61.6-28.9c-3.12-1.47-6.58,1.28-5.85,4.65l14.42,67.11Z"/>
    <path class="cls-7" d="m117.73,252.11l4.59,21.35c.24,1.13,1.15,2.01,2.29,2.17,3,.42,8.86.69,12.58-2.78s5.02-8.68,5.58-11.64c.23-1.26-.4-2.5-1.56-3.04l-19.56-9.18c-2.09-.98-4.4.86-3.92,3.12Z"/>
  </g>
  <g>
    <path class="cls-4" d="m169.54,96.8v339.76c0,21.48,17.41,38.89,38.89,38.89h216.63c21.48,0,38.89-17.41,38.89-38.89v-253.68c0-10.38-111.57-122.23-121.69-122.43l-133.1-2.54c-21.76-.41-39.63,17.11-39.63,38.88Z"/>
    <path class="cls-6" d="m342.34,63.8l6.58,102.29c.73,11.33,10.34,20.03,21.69,19.63l90.28-3.24c.84-.03,1.29-.99.78-1.65-8.08-10.45-55.71-70.63-117.12-118.2-.93-.72-2.28,0-2.21,1.17Z"/>
  </g>
  <rect class="cls-1" x="196.88" y="144.84" width="127.71" height="1.35" rx=".67" ry=".67"/>
  <rect class="cls-1" x="196.88" y="210.14" width="127.71" height="1.35" rx=".67" ry=".67"/>
  <rect class="cls-1" x="306.48" y="328.18" width="127.71" height="1.35" rx=".67" ry=".67"/>
  <rect class="cls-1" x="306.48" y="282.4" width="127.71" height="1.35" rx=".67" ry=".67"/>
  <g>
    <path class="cls-5" d="m292.15,500.26l53.35-41.66c1.03-.8,1.2-2.28.4-3.31l-147.89-187.68c-.8-1.02-2.27-1.19-3.29-.4l-52.19,40.75c-1.67,1.3-1.96,3.71-.65,5.37l146.98,186.52c.8,1.02,2.27,1.19,3.29.4Z"/>
    <rect class="cls-2" x="267.65" y="440.41" width="72.37" height="39.83" transform="translate(-220.42 288.94) rotate(-38.47)"/>
    <path class="cls-3" d="m287.9,498.43s25.8,38.88,57.41,18.71c36.38-23.22-.75-63.73-.75-63.73l-56.66,45.02Z"/>
    <path class="cls-8" d="m140.59,308.37c.32,1.51,1.44,2.7,2.91,3.13,5.75,1.7,20.78,4.49,34.75-7,13.84-11.39,17.01-28.02,17.74-34.76.19-1.78-.76-3.47-2.38-4.23l-61.6-28.9c-3.12-1.47-6.58,1.28-5.85,4.65l14.42,67.11Z"/>
    <path class="cls-7" d="m125.58,238.54l4.59,21.35c.24,1.13,1.15,2.01,2.29,2.17,3,.42,8.86.69,12.58-2.78,3.58-3.34,5.02-8.68,5.58-11.64.23-1.26-.4-2.5-1.56-3.04l-19.56-9.18c-2.09-.98-4.4.86-3.92,3.12Z"/>
  </g>
</svg>