<?xml version="1.0" encoding="UTF-8"?>
<svg id="Layer_1" data-name="Layer 1" xmlns="http://www.w3.org/2000/svg" viewBox="0 0 256 256">
  <defs>
    <style>
      .cls-1 {
        fill: #1e8fc2;
      }

      .cls-1, .cls-2 {
        stroke: #231f20;
        stroke-miterlimit: 10;
        stroke-width: 5.89px;
      }

      .cls-2 {
        fill: none;
      }
    </style>
  </defs>
  <circle class="cls-1" cx="128" cy="128" r="122.04"/>
  <line class="cls-1" x1="249" y1="128" x2="5.96" y2="128"/>
  <line class="cls-1" x1="23.73" y1="64.55" x2="232.27" y2="64.55"/>
  <line class="cls-1" x1="28.42" y1="198.56" x2="227.58" y2="198.56"/>
  <path class="cls-2" d="m129.71,7.85v235.21c0,1.63,1.92,2.49,3.13,1.41,12.42-11.09,57.23-55.81,51.87-119.36-5.24-62.04-40.66-106.14-51.71-118.52-1.15-1.29-3.29-.47-3.29,1.26Z"/>
  <path class="cls-2" d="m129.71,10.06v235.21c0,1.63-1.92,2.49-3.13,1.41-12.42-11.09-57.23-55.81-51.87-119.36,5.24-62.04,40.66-106.14,51.71-118.52,1.15-1.29,3.29-.47,3.29,1.26Z"/>
</svg>