<?xml version="1.0" encoding="UTF-8"?>
<svg id="Layer_4" data-name="Layer 4" xmlns="http://www.w3.org/2000/svg" viewBox="0 0 612 600">
  <defs>
    <style>
      .cls-1, .cls-2, .cls-3, .cls-4, .cls-5 {
        stroke: #231f20;
        stroke-miterlimit: 10;
      }

      .cls-1, .cls-2, .cls-3, .cls-5 {
        stroke-width: 4.04px;
      }

      .cls-1, .cls-4 {
        fill: none;
      }

      .cls-2 {
        fill: #fff;
      }

      .cls-3 {
        fill: #d1d3d4;
      }

      .cls-4 {
        stroke-width: 4px;
      }

      .cls-5 {
        fill: #231f20;
      }
    </style>
  </defs>
  <g>
    <path class="cls-5" d="m149.36,143.8v330.84c0,23.92,19.39,43.3,43.3,43.3h207.81c23.92,0,43.3-19.39,43.3-43.3v-249.26c0-10.38-111.57-122.23-121.69-122.43l-128.6-2.45c-24.23-.46-44.13,19.06-44.13,43.3Z"/>
    <g>
      <path class="cls-2" d="m170.92,120.95v339.76c0,21.48,17.41,38.89,38.89,38.89h216.63c21.48,0,38.89-17.41,38.89-38.89v-253.68c0-10.38-111.57-122.23-121.69-122.43l-133.1-2.54c-21.76-.41-39.63,17.11-39.63,38.88Z"/>
      <path class="cls-3" d="m343.72,87.95l6.58,102.29c.73,11.33,10.34,20.03,21.69,19.63l90.28-3.24c.84-.03,1.29-.99.78-1.65-8.08-10.45-55.71-70.63-117.12-118.2-.93-.72-2.28,0-2.21,1.17Z"/>
    </g>
    <rect class="cls-1" x="198.26" y="168.98" width="127.71" height="1.35" rx=".67" ry=".67"/>
    <rect class="cls-1" x="198.26" y="234.28" width="127.71" height="1.35" rx=".67" ry=".67"/>
    <rect class="cls-4" x="203.67" y="366.35" width="250.02" height=".67" rx=".34" ry=".34"/>
  </g>
  <rect class="cls-4" x="205.26" y="319.92" width="250.02" height=".67" rx=".34" ry=".34"/>
</svg>