<?xml version="1.0" encoding="UTF-8"?>
<svg id="Layer_3" data-name="Layer 3" xmlns="http://www.w3.org/2000/svg" viewBox="0 0 612 553">
  <defs>
    <style>
      .cls-1, .cls-2, .cls-3, .cls-4, .cls-5, .cls-6, .cls-7, .cls-8, .cls-9, .cls-10 {
        stroke: #231f20;
        stroke-miterlimit: 10;
      }

      .cls-1, .cls-6, .cls-8, .cls-10 {
        fill: #231f20;
      }

      .cls-1, .cls-7, .cls-9 {
        stroke-width: 8.68px;
      }

      .cls-2 {
        fill: #d1d3d4;
      }

      .cls-2, .cls-4, .cls-5, .cls-6, .cls-10 {
        stroke-width: 10px;
      }

      .cls-3, .cls-8 {
        stroke-width: 9.39px;
      }

      .cls-3, .cls-9 {
        fill: #bcbec0;
      }

      .cls-4, .cls-5 {
        fill: #a97c50;
      }

      .cls-5, .cls-6 {
        stroke-linecap: round;
      }

      .cls-7 {
        fill: #c71f25;
      }
    </style>
  </defs>
  <g>
    <path class="cls-10" d="m72.99,494.68V92.56c0-8.32,6.75-15.07,15.07-15.07h325.86c8.32,0,15.07,6.75,15.07,15.07v400.05c0,8.29-6.69,15.02-14.98,15.07l-325.86,2.08c-8.36.05-15.17-6.71-15.17-15.07Z"/>
    <path class="cls-10" d="m77.84,84.62l167.91-34.02c9.16-1.86,17.72,5.15,17.72,14.49v442.94c0,10.8-9.49,19.14-20.2,17.76l-156.05-20.22c-6.2-.8-10.84-6.1-10.82-12.35l1.44-408.6Z"/>
    <line class="cls-6" x1="104.99" y1="205.29" x2="104.99" y2="108.09"/>
    <line class="cls-6" x1="104.99" y1="247.29" x2="104.99" y2="298.96"/>
    <path class="cls-8" d="m237.11,335.43l-21.28-3.68c-3.76-.65-6.51-3.91-6.51-7.73v-61.62c0-3.79,3.3-6.73,7.06-6.29l17.94,2.07c5.51.64,9.66,5.3,9.66,10.84v60.63c0,3.65-3.29,6.41-6.88,5.79Z"/>
    <rect class="cls-1" x="173.59" y="287.09" width="56.32" height="14.87" rx="7.44" ry="7.44" transform="translate(58.23 -32.35) rotate(10.71)"/>
  </g>
  <g>
    <path class="cls-2" d="m89.33,483.85V81.73c0-8.32,6.75-15.07,15.07-15.07h325.86c8.32,0,15.07,6.75,15.07,15.07v400.05c0,8.29-6.69,15.02-14.98,15.07l-325.86,2.08c-8.36.05-15.17-6.71-15.17-15.07Z"/>
    <path class="cls-4" d="m94.18,73.79l167.91-34.02c9.16-1.86,17.72,5.15,17.72,14.49v442.94c0,10.8-9.49,19.14-20.2,17.76l-156.05-20.22c-6.2-.8-10.84-6.1-10.82-12.35l1.44-408.6Z"/>
    <line class="cls-5" x1="121.33" y1="194.46" x2="121.33" y2="97.26"/>
    <line class="cls-5" x1="121.33" y1="236.46" x2="121.33" y2="288.13"/>
    <path class="cls-3" d="m253.45,324.6l-21.28-3.68c-3.76-.65-6.51-3.91-6.51-7.73v-61.62c0-3.79,3.3-6.73,7.06-6.29l17.94,2.07c5.51.64,9.66,5.3,9.66,10.84v60.63c0,3.65-3.29,6.41-6.88,5.79Z"/>
    <rect class="cls-9" x="189.93" y="276.26" width="56.32" height="14.87" rx="7.44" ry="7.44" transform="translate(56.5 -35.58) rotate(10.71)"/>
    <path class="cls-7" d="m294.51,198.98v99.19c0,1.61,1.31,2.92,2.92,2.92h159.49c1.61,0,2.92,1.31,2.92,2.92v36.59c0,2.52,2.97,3.86,4.86,2.19l97.79-86.6c1.27-1.12,1.32-3.09.11-4.27l-92.76-97.12c-1.87-1.83-5.41.05-5.36,2.67l.64,35.62c.03,1.63-1.29,2.97-2.92,2.97h-164.77c-1.61,0-2.92,1.31-2.92,2.92Z"/>
  </g>
</svg>