<?xml version="1.0" encoding="UTF-8"?>
<svg id="Layer_7" data-name="Layer 7" xmlns="http://www.w3.org/2000/svg" viewBox="0 0 612 600">
  <defs>
    <style>
      .cls-1 {
        fill: #63bc46;
      }

      .cls-1, .cls-2 {
        stroke-width: 9.43px;
      }

      .cls-1, .cls-2, .cls-3, .cls-4, .cls-5, .cls-6 {
        stroke: #231f20;
        stroke-miterlimit: 10;
      }

      .cls-2, .cls-6 {
        fill: #231f20;
      }

      .cls-3 {
        fill: none;
      }

      .cls-3, .cls-4, .cls-5, .cls-6 {
        stroke-width: 4.04px;
      }

      .cls-4 {
        fill: #fff;
      }

      .cls-5 {
        fill: #d1d3d4;
      }
    </style>
  </defs>
  <g>
    <path class="cls-6" d="m183.08,143.8v330.84c0,23.92,19.39,43.3,43.3,43.3h207.81c23.92,0,43.3-19.39,43.3-43.3v-249.26c0-10.38-111.57-122.23-121.69-122.43l-128.6-2.45c-24.23-.46-44.13,19.06-44.13,43.3Z"/>
    <g>
      <path class="cls-4" d="m204.64,120.95v339.76c0,21.48,17.41,38.89,38.89,38.89h216.63c21.48,0,38.89-17.41,38.89-38.89v-253.68c0-10.38-111.57-122.23-121.69-122.43l-133.1-2.54c-21.76-.41-39.63,17.11-39.63,38.88Z"/>
      <path class="cls-5" d="m377.45,87.95l6.58,102.29c.73,11.33,10.34,20.03,21.69,19.63l90.28-3.24c.84-.03,1.29-.99.78-1.65-8.08-10.45-55.71-70.63-117.12-118.2-.93-.72-2.28,0-2.21,1.17Z"/>
    </g>
    <rect class="cls-3" x="231.98" y="168.98" width="127.71" height="1.35" rx=".67" ry=".67"/>
    <rect class="cls-3" x="231.98" y="234.28" width="127.71" height="1.35" rx=".67" ry=".67"/>
    <rect class="cls-3" x="341.59" y="352.32" width="127.71" height="1.35" rx=".67" ry=".67"/>
    <rect class="cls-3" x="341.59" y="306.54" width="127.71" height="1.35" rx=".67" ry=".67"/>
  </g>
  <path class="cls-2" d="m170.77,304.81v78.09c0,1.02-.83,1.85-1.85,1.85h-77.12c-1.02,0-1.85.83-1.85,1.85v78.77c0,1.02.83,1.85,1.85,1.85h78.31c1.02,0,1.85.83,1.85,1.85v77.71c0,1.02.83,1.85,1.85,1.85h77.89c1.02,0,1.85-.83,1.85-1.85v-77.12c0-1.02.83-1.85,1.85-1.85h77.54c1.02,0,1.85-.83,1.85-1.85v-79.37c0-1.02-.83-1.85-1.85-1.85h-77.54c-1.02,0-1.85-.83-1.85-1.85v-78.09c0-1.02-.83-1.85-1.85-1.85h-79.09c-1.02,0-1.85.83-1.85,1.85Z"/>
  <path class="cls-1" d="m181.52,292.67v78.09c0,1.02-.83,1.85-1.85,1.85h-77.12c-1.02,0-1.85.83-1.85,1.85v78.77c0,1.02.83,1.85,1.85,1.85h78.31c1.02,0,1.85.83,1.85,1.85v77.71c0,1.02.83,1.85,1.85,1.85h77.89c1.02,0,1.85-.83,1.85-1.85v-77.12c0-1.02.83-1.85,1.85-1.85h77.54c1.02,0,1.85-.83,1.85-1.85v-79.37c0-1.02-.83-1.85-1.85-1.85h-77.54c-1.02,0-1.85-.83-1.85-1.85v-78.09c0-1.02-.83-1.85-1.85-1.85h-79.09c-1.02,0-1.85.83-1.85,1.85Z"/>
</svg>