<?xml version="1.0" encoding="UTF-8"?>
<svg id="Layer_2" data-name="Layer 2" xmlns="http://www.w3.org/2000/svg" viewBox="0 0 612 553">
  <defs>
    <style>
      .cls-1 {
        fill: #039bc4;
      }

      .cls-1, .cls-2, .cls-3, .cls-4 {
        stroke: #231f20;
        stroke-miterlimit: 10;
      }

      .cls-1, .cls-3, .cls-4 {
        stroke-width: 10.25px;
      }

      .cls-2 {
        stroke-width: 2.56px;
      }

      .cls-2, .cls-4 {
        fill: #231f20;
      }

      .cls-3 {
        fill: #fff;
      }
    </style>
  </defs>
  <g>
    <path class="cls-4" d="m518.87,84.54v408.94c0,6.47-5.24,11.71-11.71,11.71H60.42c-6.47,0-11.71-5.24-11.71-11.71V106.54c0-2.27.66-4.48,1.89-6.38l14.3-22c2.16-3.32,5.86-5.33,9.82-5.33h45.24c3.69,0,7.16,1.74,9.37,4.68l7.75,10.33c1.52,2.03,2.34,4.49,2.34,7.03v63c0,6.47,5.24,11.71,11.71,11.71h288c6.47,0,11.71-5.24,11.71-11.71v-80.61c0-2.44,1.98-4.43,4.43-4.43h51.89c6.47,0,11.71,5.24,11.71,11.71Z"/>
    <rect class="cls-4" x="139.79" y="72.83" width="309.91" height="96.75" rx="11.71" ry="11.71"/>
    <path class="cls-4" d="m402.83,72.83v96.75h35.66c6.19,0,11.21-5.02,11.21-11.21v-85.54h-46.86Z"/>
    <rect class="cls-4" x="170.02" y="90.97" width="36.28" height="63.49" rx="11.71" ry="11.71"/>
    <circle class="cls-4" cx="282.65" cy="280.7" r="67.27"/>
    <circle class="cls-4" cx="282.65" cy="280.7" r="14.74"/>
    <rect class="cls-4" x="76.3" y="444.72" width="40.06" height="40.06" rx="11.71" ry="11.71"/>
    <rect class="cls-4" x="442.14" y="422.05" width="49.89" height="62.74" rx="11.71" ry="11.71"/>
    <path class="cls-2" d="m281.3,235.47l.89,10.1c.18,2.07,1.82,3.72,3.9,3.84,5.72.33,16.97,2.63,23.15,15.1,1.01,2.03,3.37,2.98,5.45,2.1l9.04-3.8c2.03-.85,3.07-3.11,2.39-5.21-2.84-8.69-12.6-29.2-40.92-26.74-2.34.2-4.11,2.26-3.9,4.61Z"/>
  </g>
  <g>
    <path class="cls-1" d="m537.86,66.4v408.94c0,6.47-5.24,11.71-11.71,11.71H79.42c-6.47,0-11.71-5.24-11.71-11.71V88.4c0-2.27.66-4.48,1.89-6.38l14.3-22c2.16-3.32,5.86-5.33,9.82-5.33h45.24c3.69,0,7.16,1.74,9.37,4.68l7.75,10.33c1.52,2.03,2.34,4.49,2.34,7.03v63c0,6.47,5.24,11.71,11.71,11.71h288c6.47,0,11.71-5.24,11.71-11.71V59.12c0-2.44,1.98-4.43,4.43-4.43h51.89c6.47,0,11.71,5.24,11.71,11.71Z"/>
    <rect class="cls-3" x="158.78" y="54.69" width="309.91" height="96.75" rx="11.71" ry="11.71"/>
    <path class="cls-1" d="m421.83,54.69v96.75h35.66c6.19,0,11.21-5.02,11.21-11.21V54.69h-46.86Z"/>
    <rect class="cls-1" x="189.02" y="72.83" width="36.28" height="63.49" rx="11.71" ry="11.71"/>
    <circle class="cls-3" cx="301.64" cy="262.56" r="67.27"/>
    <circle class="cls-4" cx="301.64" cy="262.56" r="14.74"/>
    <rect class="cls-3" x="95.29" y="426.58" width="40.06" height="40.06" rx="11.71" ry="11.71"/>
    <rect class="cls-3" x="461.13" y="403.91" width="49.89" height="62.74" rx="11.71" ry="11.71"/>
    <path class="cls-2" d="m300.3,217.33l.89,10.1c.18,2.07,1.82,3.72,3.9,3.84,5.72.33,16.97,2.63,23.15,15.1,1.01,2.03,3.37,2.98,5.45,2.1l9.04-3.8c2.03-.85,3.07-3.11,2.39-5.21-2.84-8.69-12.6-29.2-40.92-26.74-2.34.2-4.11,2.26-3.9,4.61Z"/>
  </g>
</svg>