<?xml version="1.0" encoding="UTF-8"?>
<svg id="Layer_6" data-name="Layer 6" xmlns="http://www.w3.org/2000/svg" viewBox="0 0 600 600">
  <defs>
    <style>
      .cls-1, .cls-2, .cls-3, .cls-4, .cls-5 {
        stroke-width: 12.04px;
      }

      .cls-1, .cls-2, .cls-3, .cls-4, .cls-5, .cls-6 {
        stroke: #231f20;
        stroke-miterlimit: 10;
      }

      .cls-1, .cls-2, .cls-6 {
        fill: #6d6e71;
      }

      .cls-1, .cls-3, .cls-6 {
        stroke-linecap: round;
      }

      .cls-3, .cls-4 {
        fill: #a7a9ac;
      }

      .cls-5 {
        fill: #231f20;
      }

      .cls-6 {
        stroke-width: 13.23px;
      }
    </style>
  </defs>
  <path class="cls-5" d="m117.26,242.86l41.69,280.2c.41,2.75,2.77,4.79,5.56,4.79h228c2.8,0,5.17-2.06,5.56-4.83l39.75-280.22c.39-2.77,2.76-4.83,5.56-4.83h25.34c3.08,0,5.58-2.48,5.62-5.56l.55-51.96c.03-3.12-2.49-5.68-5.62-5.68H84.12c-3.14,0-5.66,2.57-5.62,5.7l.82,52.59c.05,3.11,2.62,5.59,5.73,5.53l26.53-.54c2.83-.06,5.25,1.99,5.67,4.79Z"/>
  <g>
    <g>
      <path class="cls-4" d="m127.67,223.05l41.69,280.2c.41,2.75,2.77,4.79,5.56,4.79h228c2.8,0,5.17-2.06,5.56-4.83l39.75-280.22c.39-2.77,2.76-4.83,5.56-4.83h25.34c3.08,0,5.58-2.48,5.62-5.56l.55-51.96c.03-3.12-2.49-5.68-5.62-5.68H94.53c-3.14,0-5.66,2.57-5.62,5.7l.82,52.59c.05,3.11,2.62,5.59,5.73,5.53l26.53-.54c2.83-.06,5.25,1.99,5.67,4.79Z"/>
      <path class="cls-2" d="m455.01,218.17l-334.24.12,334.24-.12Z"/>
      <g>
        <line class="cls-6" x1="195.68" y1="279.06" x2="211.23" y2="454.91"/>
        <line class="cls-1" x1="286.53" y1="279.68" x2="286.53" y2="454.49"/>
        <line class="cls-6" x1="381.64" y1="279.68" x2="359.97" y2="456.57"/>
      </g>
    </g>
    <g>
      <line class="cls-1" x1="167" y1="159.59" x2="167" y2="180.66"/>
      <line class="cls-1" x1="248.33" y1="159.93" x2="248.33" y2="180.99"/>
      <line class="cls-1" x1="333.06" y1="160.99" x2="333.06" y2="182.06"/>
      <line class="cls-1" x1="417.32" y1="161.49" x2="417.32" y2="182.56"/>
    </g>
    <path class="cls-3" d="m177.72,154.97s-5.25-84.79,108.79-84.76c110.15.03,108.86,82.75,108.86,82.75h-27.08s1.67-58.64-83.01-58.68c-84.55-.03-78.48,60.68-78.48,60.68h-29.09Z"/>
  </g>
</svg>